<mxfile host="www.draw.io" modified="2019-11-11T16:47:50.582Z" agent="Mozilla/5.0 (Macintosh; Intel Mac OS X 10_14_2) AppleWebKit/537.36 (KHTML, like Gecko) Chrome/78.0.3904.70 Safari/537.36" etag="QxFcPeEpB-257qczwNPA" version="12.2.3" type="github" pages="1">
  <diagram id="7ilx1DFuCsv6f1OP65o-" name="第 1 页">
    <mxGraphModel dx="946" dy="473" grid="1" gridSize="10" guides="1" tooltips="1" connect="1" arrows="1" fold="1" page="1" pageScale="1" pageWidth="827" pageHeight="1169" math="0" shadow="0">
      <root>
        <mxCell id="0"/>
        <mxCell id="1" parent="0"/>
        <mxCell id="BbYoJ8XX2iFhdZ9Me9Nr-3" value="" style="verticalLabelPosition=bottom;verticalAlign=top;html=1;shape=mxgraph.basic.rect;fillColor2=none;strokeWidth=1;size=20;indent=5;fillColor=#f5f5f5;strokeColor=#666666;fontColor=#333333;" vertex="1" parent="1">
          <mxGeometry x="330" y="60" width="210" height="250" as="geometry"/>
        </mxCell>
        <mxCell id="BbYoJ8XX2iFhdZ9Me9Nr-9" style="edgeStyle=none;rounded=0;orthogonalLoop=1;jettySize=auto;html=1;exitX=0;exitY=0.5;exitDx=0;exitDy=0;entryX=1;entryY=0.5;entryDx=0;entryDy=0;" edge="1" parent="1" source="BbYoJ8XX2iFhdZ9Me9Nr-4" target="BbYoJ8XX2iFhdZ9Me9Nr-8">
          <mxGeometry relative="1" as="geometry"/>
        </mxCell>
        <mxCell id="BbYoJ8XX2iFhdZ9Me9Nr-16" value="http接口" style="text;html=1;resizable=0;points=[];align=center;verticalAlign=middle;labelBackgroundColor=#ffffff;" vertex="1" connectable="0" parent="BbYoJ8XX2iFhdZ9Me9Nr-9">
          <mxGeometry x="-0.2167" relative="1" as="geometry">
            <mxPoint as="offset"/>
          </mxGeometry>
        </mxCell>
        <mxCell id="BbYoJ8XX2iFhdZ9Me9Nr-4" value="HealthCheck" style="whiteSpace=wrap;html=1;aspect=fixed;" vertex="1" parent="1">
          <mxGeometry x="360" y="210" width="80" height="80" as="geometry"/>
        </mxCell>
        <mxCell id="BbYoJ8XX2iFhdZ9Me9Nr-5" value="应用" style="whiteSpace=wrap;html=1;aspect=fixed;" vertex="1" parent="1">
          <mxGeometry x="360" y="85" width="80" height="80" as="geometry"/>
        </mxCell>
        <mxCell id="BbYoJ8XX2iFhdZ9Me9Nr-6" value="容器JVM" style="text;html=1;strokeColor=none;fillColor=none;align=center;verticalAlign=middle;whiteSpace=wrap;rounded=0;" vertex="1" parent="1">
          <mxGeometry x="450" y="65" width="60" height="20" as="geometry"/>
        </mxCell>
        <mxCell id="BbYoJ8XX2iFhdZ9Me9Nr-7" value="" style="endArrow=classic;html=1;exitX=0.5;exitY=1;exitDx=0;exitDy=0;" edge="1" parent="1" source="BbYoJ8XX2iFhdZ9Me9Nr-5" target="BbYoJ8XX2iFhdZ9Me9Nr-4">
          <mxGeometry width="50" height="50" relative="1" as="geometry">
            <mxPoint x="430" y="175" as="sourcePoint"/>
            <mxPoint x="480" y="125" as="targetPoint"/>
          </mxGeometry>
        </mxCell>
        <mxCell id="BbYoJ8XX2iFhdZ9Me9Nr-8" value="&lt;span style=&quot;color: rgb(118 , 118 , 118) ; font-family: &amp;#34;arial&amp;#34; , &amp;#34;helvetica&amp;#34; , sans-serif ; font-size: 13px ; text-align: left ; white-space: normal ; background-color: rgb(255 , 255 , 255)&quot;&gt;Prometheus&lt;/span&gt;" style="shape=cylinder;whiteSpace=wrap;html=1;boundedLbl=1;backgroundOutline=1;fillColor=#dae8fc;strokeColor=#6c8ebf;" vertex="1" parent="1">
          <mxGeometry x="160" y="200" width="80" height="100" as="geometry"/>
        </mxCell>
        <mxCell id="BbYoJ8XX2iFhdZ9Me9Nr-10" value="grafana" style="shape=trapezoid;perimeter=trapezoidPerimeter;whiteSpace=wrap;html=1;fillColor=#fff2cc;strokeColor=#d6b656;" vertex="1" parent="1">
          <mxGeometry x="140" y="85" width="120" height="60" as="geometry"/>
        </mxCell>
        <mxCell id="BbYoJ8XX2iFhdZ9Me9Nr-11" value="" style="endArrow=classic;html=1;entryX=0.5;entryY=1;entryDx=0;entryDy=0;" edge="1" parent="1" source="BbYoJ8XX2iFhdZ9Me9Nr-8" target="BbYoJ8XX2iFhdZ9Me9Nr-10">
          <mxGeometry width="50" height="50" relative="1" as="geometry">
            <mxPoint x="160" y="220" as="sourcePoint"/>
            <mxPoint x="210" y="170" as="targetPoint"/>
          </mxGeometry>
        </mxCell>
        <mxCell id="BbYoJ8XX2iFhdZ9Me9Nr-14" style="edgeStyle=none;rounded=0;orthogonalLoop=1;jettySize=auto;html=1;entryX=1;entryY=0.5;entryDx=0;entryDy=0;" edge="1" parent="1" source="BbYoJ8XX2iFhdZ9Me9Nr-12" target="BbYoJ8XX2iFhdZ9Me9Nr-4">
          <mxGeometry relative="1" as="geometry"/>
        </mxCell>
        <mxCell id="BbYoJ8XX2iFhdZ9Me9Nr-15" value="实时查看监控状态" style="text;html=1;resizable=0;points=[];align=center;verticalAlign=middle;labelBackgroundColor=#ffffff;" vertex="1" connectable="0" parent="BbYoJ8XX2iFhdZ9Me9Nr-14">
          <mxGeometry y="-1" relative="1" as="geometry">
            <mxPoint as="offset"/>
          </mxGeometry>
        </mxCell>
        <mxCell id="BbYoJ8XX2iFhdZ9Me9Nr-12" value="cmdb" style="whiteSpace=wrap;html=1;aspect=fixed;" vertex="1" parent="1">
          <mxGeometry x="600" y="205" width="90" height="90" as="geometry"/>
        </mxCell>
        <mxCell id="BbYoJ8XX2iFhdZ9Me9Nr-21" style="edgeStyle=orthogonalEdgeStyle;rounded=0;orthogonalLoop=1;jettySize=auto;html=1;entryX=0.5;entryY=1;entryDx=0;entryDy=0;" edge="1" parent="1" source="BbYoJ8XX2iFhdZ9Me9Nr-17" target="BbYoJ8XX2iFhdZ9Me9Nr-8">
          <mxGeometry relative="1" as="geometry"/>
        </mxCell>
        <mxCell id="BbYoJ8XX2iFhdZ9Me9Nr-22" value="push" style="text;html=1;resizable=0;points=[];align=center;verticalAlign=middle;labelBackgroundColor=#ffffff;" vertex="1" connectable="0" parent="BbYoJ8XX2iFhdZ9Me9Nr-21">
          <mxGeometry x="0.2231" y="-30" relative="1" as="geometry">
            <mxPoint as="offset"/>
          </mxGeometry>
        </mxCell>
        <mxCell id="BbYoJ8XX2iFhdZ9Me9Nr-17" value="CollectAgent" style="whiteSpace=wrap;html=1;aspect=fixed;" vertex="1" parent="1">
          <mxGeometry x="360" y="360" width="80" height="80" as="geometry"/>
        </mxCell>
        <mxCell id="BbYoJ8XX2iFhdZ9Me9Nr-18" value="" style="endArrow=classic;html=1;exitX=0.5;exitY=1;exitDx=0;exitDy=0;" edge="1" parent="1" source="BbYoJ8XX2iFhdZ9Me9Nr-4" target="BbYoJ8XX2iFhdZ9Me9Nr-17">
          <mxGeometry width="50" height="50" relative="1" as="geometry">
            <mxPoint x="120" y="460" as="sourcePoint"/>
            <mxPoint x="170" y="410" as="targetPoint"/>
          </mxGeometry>
        </mxCell>
        <mxCell id="BbYoJ8XX2iFhdZ9Me9Nr-19" value="udp/kafka埋点等, 非http方式" style="text;html=1;resizable=0;points=[];align=center;verticalAlign=middle;labelBackgroundColor=#ffffff;" vertex="1" connectable="0" parent="BbYoJ8XX2iFhdZ9Me9Nr-18">
          <mxGeometry x="0.0286" y="1" relative="1" as="geometry">
            <mxPoint as="offset"/>
          </mxGeometry>
        </mxCell>
      </root>
    </mxGraphModel>
  </diagram>
</mxfile>
